# xmcd
#
# Track frame offsets:
#	183
#	18760
#	49723
#	72868
#
# Disc length: 1366 seconds
# Revision: 0
# Processed by: cddbd v1.5.2PL0 Copyright (c) Steve Scherf et al.
# Submitted via: dBpowerAMP V12.0
#
DISCID=28055404
DTITLE=Paula Abdul - (It's Just) the Way That You Love Me
DYEAR=1988
DGENRE=R&B
TTITLE0=(It’s Just) The Way That You Love Me [7” Radio Edit]
TTITLE1=(It’s Just) The Way That You Love Me [12” Remix]
TTITLE2=(It’s Just) The Way That You Love Me [7” Dub]
TTITLE3=(It’s Just) The Way That You Love Me [Houseafire Mix]
EXTD=
EXTT0=
EXTT1=
EXTT2=
EXTT3=
PLAYORDER=
